<svg width="21" height="13" viewBox="0 0 21 13" fill="none" xmlns="http://www.w3.org/2000/svg">
<path d="M20.6727 11.0252C20.6727 10.9421 20.5897 10.9421 20.5897 10.8591C20.2576 10.1949 19.5104 9.36471 18.5141 8.45146C18.016 8.03635 17.7669 7.70425 17.6009 7.53821C17.3518 7.20611 17.3518 6.95705 17.4348 6.62496C17.5178 6.37589 17.8499 5.96077 18.4311 5.21356C18.7632 4.79845 18.9292 4.54939 19.1783 4.30032C20.4236 2.63986 21.0048 1.56055 20.8387 1.06241L20.7557 0.979399C20.6727 0.896376 20.5897 0.813356 20.4236 0.813356C20.2576 0.730333 20.0085 0.730333 19.7595 0.813356H16.6046C16.5216 0.813356 16.5216 0.813356 16.3555 0.813356C16.2725 0.813356 16.1895 0.813356 16.1895 0.813356H16.1065H16.0234L15.9404 0.896371C15.8574 0.979394 15.8574 0.979392 15.8574 1.06241C15.5253 1.97567 15.1102 2.72287 14.6951 3.5531C14.446 3.96822 14.1969 4.38334 13.9479 4.71543C13.6988 5.04752 13.5327 5.29659 13.3667 5.46263C13.2006 5.62868 13.0346 5.7117 12.9516 5.87775C12.8685 5.96077 12.7025 6.0438 12.7025 5.96077C12.6195 5.96077 12.5365 5.96077 12.5365 5.87775C12.4534 5.79472 12.3704 5.7117 12.2874 5.62868C12.2044 5.54565 12.2044 5.37961 12.1213 5.21356C12.1213 5.04751 12.1213 4.88147 12.1213 4.79845C12.1213 4.71542 12.1213 4.46636 12.1213 4.30032C12.1213 4.05125 12.1213 3.8852 12.1213 3.80217C12.1213 3.5531 12.1213 3.22102 12.1213 2.88893C12.1213 2.55684 12.1213 2.30776 12.1213 2.14172C12.1213 1.97567 12.1213 1.7266 12.1213 1.56056C12.1213 1.31149 12.1213 1.14544 12.1213 1.06241C12.1213 0.979392 12.0383 0.813351 12.0383 0.730328C11.9553 0.647305 11.8723 0.564279 11.7892 0.481257C11.7062 0.398234 11.5402 0.398236 11.4572 0.315213C11.042 0.23219 10.5439 0.14917 9.96276 0.14917C8.63439 0.14917 7.72114 0.232195 7.38904 0.398241C7.223 0.481264 7.05695 0.564282 6.97393 0.730328C6.80788 0.896374 6.80788 0.979399 6.8909 0.979399C7.30602 1.06242 7.63811 1.22846 7.80416 1.47753L7.88719 1.64359C7.97021 1.72661 7.97019 1.89265 8.05322 2.14172C8.13624 2.39078 8.13625 2.63985 8.13625 2.97194C8.13625 3.47008 8.13625 3.96822 8.13625 4.30032C8.13625 4.71543 8.05322 4.96449 8.05322 5.21356C8.05322 5.46263 7.97021 5.62868 7.88719 5.7117C7.80416 5.87775 7.80415 5.96077 7.72113 5.96077C7.72113 5.96077 7.72113 6.04379 7.6381 6.04379C7.55508 6.04379 7.47206 6.12682 7.30602 6.12682C7.22299 6.12682 7.05695 6.0438 6.97393 5.96077C6.80788 5.87775 6.64184 5.71171 6.55882 5.54566C6.39277 5.37961 6.22672 5.13054 6.06067 4.79845C5.89463 4.46635 5.64555 4.13427 5.4795 3.63613L5.31347 3.30404C5.23045 3.138 5.0644 2.8059 4.89836 2.39079C4.73231 1.97567 4.56626 1.64359 4.40021 1.22847C4.31719 1.06242 4.23418 0.979394 4.15116 0.896371H4.06813C4.06813 0.896371 3.98509 0.813356 3.90207 0.813356C3.81905 0.813356 3.73604 0.730328 3.65301 0.730328H0.664182C0.33209 0.730328 0.166047 0.813348 0.0830242 0.896371L-3.8147e-06 0.979399C-3.8147e-06 0.979399 -3.8147e-06 1.06242 -3.8147e-06 1.14544C-3.8147e-06 1.22847 1.25138e-06 1.31148 0.0830242 1.47753C0.498139 2.4738 0.996274 3.47008 1.49441 4.46636C1.99255 5.37961 2.49069 6.20984 2.82278 6.791C3.2379 7.37216 3.56998 7.95333 3.9851 8.45146C4.40021 8.9496 4.64928 9.28169 4.7323 9.44774C4.89835 9.61378 4.98136 9.6968 5.06439 9.77982L5.31347 10.0289C5.47952 10.1949 5.72858 10.444 6.06067 10.6931C6.39276 10.9421 6.80787 11.1912 7.22299 11.4403C7.6381 11.6893 8.13625 11.8554 8.63439 12.0215C9.21555 12.1875 9.71368 12.2705 10.2118 12.1875H11.4572C11.7062 12.1875 11.8723 12.1045 12.0383 11.9384L12.1213 11.8554C12.1213 11.7724 12.2044 11.7724 12.2044 11.6894C12.2044 11.6063 12.2044 11.5233 12.2044 11.3573C12.2044 11.0252 12.2044 10.7761 12.2874 10.527C12.3704 10.278 12.3704 10.1119 12.4534 9.94588C12.5365 9.77983 12.6195 9.6968 12.7025 9.61378C12.7855 9.53076 12.8686 9.44774 12.8686 9.44774H12.9516C13.1176 9.36471 13.3667 9.44773 13.5327 9.61378C13.7818 9.77982 14.0309 10.0289 14.1969 10.278C14.363 10.527 14.612 10.7761 14.9441 11.1082C15.2762 11.4403 15.5253 11.6894 15.6913 11.7724L15.9404 11.9384C16.1064 12.0214 16.2725 12.1045 16.5216 12.1875C16.7706 12.2705 16.9367 12.2705 17.1027 12.2705L19.9255 12.1875C20.1746 12.1875 20.4236 12.1045 20.5897 12.0215C20.7557 11.9384 20.8387 11.8554 20.8387 11.6894C20.8387 11.6063 20.8387 11.4403 20.8387 11.3573C20.6727 11.1912 20.6727 11.1082 20.6727 11.0252Z" fill="white"/>
</svg>
