<svg width="19" height="17" viewBox="0 0 19 17" fill="none" xmlns="http://www.w3.org/2000/svg">
<path d="M2.24355 8.25217C1.8152 7.82371 1.4834 7.30861 1.27042 6.74143C1.05743 6.17424 0.968171 5.56807 1.00863 4.96357C1.04908 4.35906 1.21831 3.77019 1.50498 3.23644C1.79164 2.7027 2.18911 2.23641 2.67074 1.86884C3.15236 1.50128 3.707 1.24094 4.29748 1.10527C4.88795 0.969609 5.5006 0.961759 6.09436 1.08225C6.68812 1.20274 7.24925 1.44878 7.74013 1.80389C8.23101 2.15899 8.6403 2.61494 8.94055 3.14117H10.0585C10.3588 2.61494 10.7681 2.15899 11.259 1.80389C11.7498 1.44878 12.311 1.20274 12.9047 1.08225C13.4985 0.961759 14.1111 0.969609 14.7016 1.10527C15.2921 1.24094 15.8467 1.50128 16.3284 1.86884C16.81 2.23641 17.2074 2.7027 17.4941 3.23644C17.7808 3.77019 17.95 4.35906 17.9905 4.96357C18.0309 5.56807 17.9417 6.17424 17.7287 6.74143C17.5157 7.30861 17.1839 7.82371 16.7555 8.25217L9.49955 15.5102L2.24355 8.25317V8.25217ZM17.4615 8.96217C17.9737 8.44999 18.3743 7.83738 18.6382 7.16287C18.9021 6.48836 19.0236 5.76653 18.995 5.0428C18.9664 4.31906 18.7884 3.60907 18.4721 2.95747C18.1558 2.30587 17.7081 1.72677 17.1572 1.25658C16.6062 0.786395 15.964 0.435294 15.2708 0.22536C14.5776 0.015427 13.8484 -0.0487965 13.1292 0.0367289C12.4099 0.122254 11.7162 0.355678 11.0915 0.722321C10.4669 1.08896 9.92486 1.58089 9.49955 2.16717C9.07423 1.58089 8.53221 1.08896 7.90756 0.722321C7.28291 0.355678 6.58915 0.122254 5.86992 0.0367289C5.15069 -0.0487965 4.42154 0.015427 3.72833 0.22536C3.03512 0.435294 2.39284 0.786395 1.8419 1.25658C1.29096 1.72677 0.843274 2.30587 0.526992 2.95747C0.21071 3.60907 0.0326771 4.31906 0.00409075 5.0428C-0.0244956 5.76653 0.0969828 6.48836 0.360886 7.16287C0.624789 7.83738 1.02541 8.44999 1.53755 8.96217L9.49955 16.9232L17.4615 8.96317V8.96217Z" fill="#F7F7F7"/>
</svg>
