<svg width="15" height="23" viewBox="0 0 15 23" fill="none" xmlns="http://www.w3.org/2000/svg">
<path d="M14.1042 13.796C14.6289 13.2713 14.7039 12.5217 14.2541 11.7721C13.8793 11.1724 13.2046 10.8725 12.455 11.0224C12.1552 11.0974 11.8553 11.2473 11.5555 11.4722C9.23171 13.0464 6.08335 12.9714 3.75956 11.3973C3.60963 11.3223 3.45971 11.2473 3.30979 11.1724C2.48522 10.7976 1.66065 10.9475 1.21089 11.6971C0.68616 12.4467 0.761112 13.2713 1.43576 13.9459C1.58568 14.0959 1.73561 14.1708 1.81057 14.3207L1.88553 14.3957C2.93499 15.2203 4.20933 15.745 5.85847 15.9699L4.88397 16.9444C4.0594 17.7689 3.15987 18.6685 2.3353 19.493C2.11042 19.7179 1.81057 20.0927 1.81057 20.6175C1.81057 21.2921 2.18538 21.9668 2.86003 22.2666C3.08491 22.4165 3.30979 22.4165 3.53467 22.4165C3.90948 22.4165 4.35924 22.2666 4.65909 21.8918C5.7835 20.7674 6.68304 19.8679 7.58257 18.9683C7.65753 18.8934 7.65753 18.8934 7.65753 18.8934C7.65753 18.8934 7.73249 18.8934 7.73249 18.9683C8.33218 19.643 9.00683 20.2427 9.60652 20.9173C9.90636 21.2171 10.2062 21.517 10.506 21.8168C10.8809 22.1916 11.1807 22.3416 11.6305 22.3416C12.3051 22.4165 13.0547 21.9668 13.3546 21.2921C13.6544 20.6924 13.5045 19.9428 12.9798 19.493C12.2302 18.7434 11.4805 17.9189 10.656 17.1692L9.38163 15.8949C10.0563 15.82 10.8059 15.67 11.4805 15.3702C12.605 14.9954 13.4295 14.4707 14.1042 13.796Z" fill="white"/>
<path d="M7.65753 11.6971C10.8808 11.6971 13.5045 9.14841 13.5045 5.92509C13.5045 4.35091 12.9048 2.85169 11.7804 1.72728C10.656 0.602864 9.23171 0.00317383 7.73249 0.00317383C4.50917 0.00317383 1.96049 2.62681 1.88553 5.77517C1.88553 7.34935 2.48522 8.77361 3.60964 9.89802C4.65909 11.0974 6.08334 11.6971 7.65753 11.6971ZM6.00839 4.20099C6.45815 3.75123 7.05784 3.52634 7.65753 3.52634C9.00682 3.52634 9.98132 4.5758 9.98132 5.85013C9.98132 7.19943 8.93186 8.17392 7.65753 8.17392C6.30823 8.17392 5.33374 7.12447 5.33374 5.85013C5.33374 5.25045 5.55862 4.65076 6.00839 4.20099Z" fill="white"/>
<path d="M14.1042 13.796C14.6289 13.2713 14.7039 12.5217 14.2541 11.7721C13.8793 11.1724 13.2046 10.8725 12.455 11.0224C12.1552 11.0974 11.8553 11.2473 11.5555 11.4722C9.23171 13.0464 6.08335 12.9714 3.75956 11.3973C3.60963 11.3223 3.45971 11.2473 3.30979 11.1724C2.48522 10.7976 1.66065 10.9475 1.21089 11.6971C0.68616 12.4467 0.761112 13.2713 1.43576 13.9459C1.58568 14.0959 1.73561 14.1708 1.81057 14.3207L1.88553 14.3957C2.93499 15.2203 4.20933 15.745 5.85847 15.9699L4.88397 16.9444C4.0594 17.7689 3.15987 18.6685 2.3353 19.493C2.11042 19.7179 1.81057 20.0927 1.81057 20.6175C1.81057 21.2921 2.18538 21.9668 2.86003 22.2666C3.08491 22.4165 3.30979 22.4165 3.53467 22.4165C3.90948 22.4165 4.35924 22.2666 4.65909 21.8918C5.7835 20.7674 6.68304 19.8679 7.58257 18.9683C7.65753 18.8934 7.65753 18.8934 7.65753 18.8934C7.65753 18.8934 7.73249 18.8934 7.73249 18.9683C8.33218 19.643 9.00683 20.2427 9.60652 20.9173C9.90636 21.2171 10.2062 21.517 10.506 21.8168C10.8809 22.1916 11.1807 22.3416 11.6305 22.3416C12.3051 22.4165 13.0547 21.9668 13.3546 21.2921C13.6544 20.6924 13.5045 19.9428 12.9798 19.493C12.2302 18.7434 11.4805 17.9189 10.656 17.1692L9.38163 15.8949C10.0563 15.82 10.8059 15.67 11.4805 15.3702C12.605 14.9954 13.4295 14.4707 14.1042 13.796Z" fill="white"/>
</svg>
