<svg width="21" height="13" viewBox="0 0 21 13" fill="none" xmlns="http://www.w3.org/2000/svg">
<path d="M20.6727 11.5801C20.6727 11.4987 20.5897 11.4987 20.5897 11.4172C20.2576 10.7654 19.5104 9.95065 18.5141 9.05443C18.016 8.64706 17.7669 8.32115 17.6009 8.1582C17.3518 7.83231 17.3518 7.58789 17.4348 7.26199C17.5178 7.01757 17.8499 6.61019 18.4311 5.87692C18.7632 5.46954 18.9292 5.22513 19.1783 4.98071C20.4236 3.35122 21.0048 2.29204 20.8387 1.80319L20.7557 1.72173C20.6727 1.64025 20.5897 1.55878 20.4236 1.55878C20.2576 1.47731 20.0085 1.47731 19.7595 1.55878H16.6046C16.5216 1.55878 16.5216 1.55878 16.3555 1.55878C16.2725 1.55878 16.1895 1.55878 16.1895 1.55878H16.1065H16.0234L15.9404 1.64025C15.8574 1.72172 15.8574 1.72172 15.8574 1.80319C15.5253 2.69941 15.1102 3.43268 14.6951 4.24743C14.446 4.6548 14.1969 5.06218 13.9479 5.38808C13.6988 5.71398 13.5327 5.95839 13.3667 6.12134C13.2006 6.28429 13.0346 6.36577 12.9516 6.52872C12.8685 6.61019 12.7025 6.69167 12.7025 6.61019C12.6195 6.61019 12.5365 6.61019 12.5365 6.52872C12.4534 6.44724 12.3704 6.36576 12.2874 6.28429C12.2044 6.20281 12.2044 6.03987 12.1213 5.87692C12.1213 5.71397 12.1213 5.55102 12.1213 5.46954C12.1213 5.38807 12.1213 5.14365 12.1213 4.98071C12.1213 4.73628 12.1213 4.57333 12.1213 4.49185C12.1213 4.24743 12.1213 3.92154 12.1213 3.59564C12.1213 3.26974 12.1213 3.02531 12.1213 2.86236C12.1213 2.69942 12.1213 2.45499 12.1213 2.29205C12.1213 2.04762 12.1213 1.88467 12.1213 1.80319C12.1213 1.72172 12.0383 1.55878 12.0383 1.4773C11.9553 1.39583 11.8723 1.31435 11.7892 1.23288C11.7062 1.1514 11.5402 1.1514 11.4572 1.06993C11.042 0.988454 10.5439 0.906982 9.96276 0.906982C8.63439 0.906982 7.72114 0.988459 7.38905 1.15141C7.223 1.23288 7.05695 1.31435 6.97393 1.4773C6.80789 1.64025 6.80788 1.72173 6.8909 1.72173C7.30602 1.8032 7.63811 1.96614 7.80416 2.21057L7.88719 2.37353C7.97021 2.455 7.9702 2.61794 8.05322 2.86236C8.13624 3.10679 8.13625 3.35121 8.13625 3.67711C8.13625 4.16596 8.13625 4.65481 8.13625 4.98071C8.13625 5.38808 8.05322 5.63249 8.05322 5.87692C8.05322 6.12134 7.97021 6.28429 7.88719 6.36577C7.80417 6.52872 7.80416 6.61019 7.72113 6.61019C7.72113 6.61019 7.72113 6.69166 7.6381 6.69166C7.55508 6.69166 7.47206 6.77314 7.30602 6.77314C7.223 6.77314 7.05695 6.69167 6.97393 6.61019C6.80789 6.52872 6.64184 6.36577 6.55882 6.20282C6.39277 6.03987 6.22672 5.79544 6.06067 5.46954C5.89463 5.14365 5.64555 4.81775 5.4795 4.32891L5.31347 4.00301C5.23045 3.84007 5.0644 3.51416 4.89836 3.10679C4.73231 2.69942 4.56626 2.37353 4.40022 1.96615C4.31719 1.8032 4.23418 1.72172 4.15116 1.64025H4.06813C4.06813 1.64025 3.9851 1.55878 3.90207 1.55878C3.81905 1.55878 3.73604 1.4773 3.65302 1.4773H0.664186C0.332094 1.4773 0.166051 1.55877 0.083028 1.64025L0 1.72173C0 1.72173 0 1.8032 0 1.88467C0 1.96615 5.06608e-06 2.04762 0.083028 2.21057C0.498142 3.18826 0.996277 4.16596 1.49441 5.14365C1.99255 6.03987 2.49069 6.85462 2.82279 7.42494C3.2379 7.99526 3.56999 8.56558 3.9851 9.05443C4.40022 9.54327 4.64928 9.86917 4.7323 10.0321C4.89835 10.1951 4.98137 10.2765 5.06439 10.358L5.31347 10.6024C5.47952 10.7654 5.72858 11.0098 6.06067 11.2542C6.39277 11.4987 6.80788 11.7431 7.22299 11.9875C7.6381 12.2319 8.13625 12.3949 8.63439 12.5578C9.21555 12.7208 9.71368 12.8023 10.2118 12.7208H11.4572C11.7062 12.7208 11.8723 12.6393 12.0383 12.4764L12.1213 12.3949C12.1213 12.3134 12.2044 12.3134 12.2044 12.2319C12.2044 12.1505 12.2044 12.069 12.2044 11.906C12.2044 11.5801 12.2044 11.3357 12.2874 11.0913C12.3704 10.8469 12.3704 10.6839 12.4534 10.521C12.5365 10.358 12.6195 10.2765 12.7025 10.1951C12.7855 10.1136 12.8686 10.0321 12.8686 10.0321H12.9516C13.1176 9.95064 13.3667 10.0321 13.5327 10.1951C13.7818 10.358 14.0309 10.6024 14.1969 10.8469C14.363 11.0913 14.612 11.3357 14.9441 11.6616C15.2762 11.9875 15.5253 12.2319 15.6913 12.3134L15.9404 12.4764C16.1064 12.5578 16.2725 12.6393 16.5216 12.7208C16.7706 12.8023 16.9367 12.8022 17.1027 12.8022L19.9255 12.7208C20.1746 12.7208 20.4236 12.6393 20.5897 12.5578C20.7557 12.4764 20.8387 12.3949 20.8387 12.2319C20.8387 12.1505 20.8387 11.9875 20.8387 11.906C20.6727 11.7431 20.6727 11.6616 20.6727 11.5801Z" fill="#00CCA9"/>
</svg>
