<svg width="17" height="18" viewBox="0 0 17 18" fill="none" xmlns="http://www.w3.org/2000/svg">
<path d="M14.5808 0.944092H2.41923C1.04615 0.944092 0 1.97076 0 3.31826V15.2533C0 16.6008 1.04615 17.6274 2.41923 17.6274H14.5808C15.9538 17.6274 17 16.6008 17 15.2533V3.31826C17 1.97076 15.9538 0.944092 14.5808 0.944092ZM8.5 14.2908C11.3115 14.2908 13.6 12.1091 13.6 9.47827C13.6 9.0291 13.5346 8.51577 13.4038 8.13077H14.8423V14.9324C14.8423 15.2533 14.5808 15.5741 14.1885 15.5741H2.81154C2.48462 15.5741 2.15769 15.3174 2.15769 14.9324V8.0666H3.66154C3.53077 8.51576 3.46539 8.96493 3.46539 9.4141C3.4 12.1091 5.68846 14.2908 8.5 14.2908ZM8.5 12.3658C6.66923 12.3658 5.23077 10.9541 5.23077 9.2216C5.23077 7.4891 6.66923 6.07743 8.5 6.07743C10.3308 6.07743 11.7692 7.4891 11.7692 9.2216C11.7692 11.0183 10.3308 12.3658 8.5 12.3658ZM14.7769 5.49993C14.7769 5.88493 14.45 6.20576 14.0577 6.20576H12.2269C11.8346 6.20576 11.5077 5.88493 11.5077 5.49993V3.76743C11.5077 3.38243 11.8346 3.06159 12.2269 3.06159H14.0577C14.45 3.06159 14.7769 3.38243 14.7769 3.76743V5.49993Z" fill="#00CCA9"/>
</svg>
