<svg width="17" height="18" viewBox="0 0 17 18" fill="none" xmlns="http://www.w3.org/2000/svg">
<path d="M14.5808 0.709839H2.41923C1.04615 0.709839 0 1.75599 0 3.12907V15.2906C0 16.6637 1.04615 17.7098 2.41923 17.7098H14.5808C15.9538 17.7098 17 16.6637 17 15.2906V3.12907C17 1.75599 15.9538 0.709839 14.5808 0.709839ZM8.5 14.3098C11.3115 14.3098 13.6 12.0868 13.6 9.40599C13.6 8.9483 13.5346 8.42522 13.4038 8.03292H14.8423V14.9637C14.8423 15.2906 14.5808 15.6175 14.1885 15.6175H2.81154C2.48462 15.6175 2.15769 15.356 2.15769 14.9637V7.96753H3.66154C3.53077 8.42522 3.46539 8.88292 3.46539 9.34061C3.4 12.0868 5.68846 14.3098 8.5 14.3098ZM8.5 12.3483C6.66923 12.3483 5.23077 10.9098 5.23077 9.14445C5.23077 7.37907 6.66923 5.94061 8.5 5.94061C10.3308 5.94061 11.7692 7.37907 11.7692 9.14445C11.7692 10.9752 10.3308 12.3483 8.5 12.3483ZM14.7769 5.35215C14.7769 5.74445 14.45 6.07138 14.0577 6.07138H12.2269C11.8346 6.07138 11.5077 5.74445 11.5077 5.35215V3.58676C11.5077 3.19445 11.8346 2.86753 12.2269 2.86753H14.0577C14.45 2.86753 14.7769 3.19445 14.7769 3.58676V5.35215Z" fill="white"/>
</svg>
